<?xml version="1.0" encoding="iso-8859-1"?>
<!-- Generator: Adobe Illustrator 19.0.0, SVG Export Plug-In . SVG Version: 6.00 Build 0)  -->
<svg version="1.1" id="Capa_1" xmlns="http://www.w3.org/2000/svg" xmlns:xlink="http://www.w3.org/1999/xlink" x="0px" y="0px"
	 viewBox="0 0 512 512" style="enable-background:new 0 0 512 512;" xml:space="preserve">
<g>
	<path style="fill:#009E49;" d="M56.889,440.889h398.222C486.528,440.889,512,415.417,512,384V256L25.74,431.594
		C34.69,437.464,45.387,440.889,56.889,440.889z"/>
	<path style="fill:#009E49;" d="M455.111,71.111H56.889c-11.501,0-22.198,3.425-31.147,9.294l486.256,175.592l-0.003,0.001L512,256
		V128C512,96.583,486.528,71.111,455.111,71.111z"/>
</g>
<path style="fill:#FFFFFF;" d="M25.742,80.405c-2.203,1.445-4.297,3.039-6.272,4.766l25.584,18.477L462.22,255.996l-0.003,0.001
	l0.005,0.002L45.058,408.347l-0.002,0.001l-25.587,18.48c1.974,1.727,4.066,3.32,6.267,4.763l486.259-175.593l0.003-0.001
	L25.742,80.405z"/>
<polygon style="fill:#FCD116;" points="45.058,408.347 462.221,256 462.216,255.998 45.058,103.653 256,256 "/>
<path style="fill:#141414;" d="M45.058,408.347L256,256L45.058,103.653l-0.002-0.001l-25.587-18.48
	c-4.405,3.852-8.221,8.363-11.269,13.394l219.356,157.429l-0.004,0.003l0.004,0.003l-90.827,65.185L8.201,413.436
	c3.048,5.031,6.863,9.54,11.268,13.392l25.587-18.48L45.058,408.347z"/>
<path style="fill:#CE1126;" d="M227.552,255.997l0.004-0.003L8.2,98.565C2.997,107.153,0,117.227,0,128v256
	c0,10.774,2.997,20.848,8.201,29.436l128.528-92.251L227.552,255.997z"/>
<g>
</g>
<g>
</g>
<g>
</g>
<g>
</g>
<g>
</g>
<g>
</g>
<g>
</g>
<g>
</g>
<g>
</g>
<g>
</g>
<g>
</g>
<g>
</g>
<g>
</g>
<g>
</g>
<g>
</g>
</svg>
